<?xml version="1.0" encoding="UTF-8"?><svg xmlns="http://www.w3.org/2000/svg" viewBox="0 0 203.41 194.47"><defs><style>.cls-1{isolation:isolate;}.cls-2{fill:#3c3e34;}.cls-3{fill:none;}.cls-4{mix-blend-mode:multiply;opacity:.6;}.cls-5{fill:#bfc852;}</style></defs><g class="cls-1"><g id="Calque_2"><g id="iconos"><g><g class="cls-4"><circle class="cls-5" cx="131.89" cy="125.88" r="68.59"/></g><path class="cls-3" d="M105.91,81.62c-1.44-.23-2.49-1.47-2.46-2.92l1.14-61.49-37.62,84.72,33.63,5.22c1.58,.24,2.67,1.73,2.42,3.31l-9.37,60.3,45.56-83.97-33.3-5.18Z"/><path class="cls-2" d="M87.27,189.66c.3,.11,.62,.15,.92,.15,1.04,0,2.04-.57,2.55-1.52l55.53-102.35c.45-.83,.47-1.82,.05-2.67-.42-.85-1.22-1.44-2.16-1.57l-34.87-5.42,1.36-73.31c.02-1.38-.93-2.6-2.28-2.9-1.35-.3-2.72,.4-3.29,1.66L60.12,103.03c-.36,.82-.33,1.78,.11,2.57,.43,.79,1.21,1.34,2.1,1.48l34.5,5.36-11.5,74.01c-.21,1.39,.6,2.75,1.95,3.2Zm15.74-79.19c.24-1.58-.84-3.07-2.42-3.31l-33.63-5.22L104.58,17.21l-1.14,61.49c-.03,1.45,1.02,2.69,2.46,2.92l33.3,5.18-45.56,83.97,9.37-60.3Z"/><path class="cls-2" d="M160.55,71.17c.75,0,1.49-.28,2.06-.85l14.41-14.4c1.13-1.14,1.13-2.98,0-4.11-1.13-1.14-2.98-1.14-4.11,0l-14.41,14.41c-1.13,1.13-1.13,2.98,0,4.1,.57,.57,1.31,.85,2.05,.85Z"/><path class="cls-2" d="M200.51,94.16h-39.96c-1.6,0-2.91,1.31-2.91,2.92s1.3,2.9,2.91,2.9h39.96c1.6,0,2.9-1.3,2.9-2.9s-1.3-2.92-2.9-2.92Z"/><path class="cls-2" d="M26.4,52.95c-1.13,1.14-1.13,2.98,0,4.1l14.41,14.41c.57,.57,1.31,.86,2.05,.86s1.48-.29,2.05-.86c1.14-1.13,1.14-2.97,0-4.1l-14.41-14.41c-1.14-1.13-2.98-1.13-4.11,0Z"/><path class="cls-2" d="M37.78,122.92l-14.41,14.4c-1.13,1.13-1.13,2.97,0,4.11,.56,.57,1.31,.85,2.05,.85s1.49-.28,2.05-.85l14.41-14.4c1.13-1.14,1.13-2.97,0-4.11-1.13-1.13-2.98-1.13-4.11,0Z"/><path class="cls-2" d="M172.9,144.66c.57,.57,1.31,.85,2.05,.85s1.49-.28,2.06-.85c1.13-1.13,1.13-2.97,0-4.11l-14.41-14.41c-1.13-1.13-2.98-1.13-4.11,0-1.13,1.13-1.13,2.98,0,4.11l14.41,14.41Z"/><path class="cls-2" d="M2.9,101.14H42.87c1.6,0,2.9-1.31,2.9-2.91s-1.3-2.91-2.9-2.91H2.9c-1.6,0-2.9,1.31-2.9,2.91s1.3,2.91,2.9,2.91Z"/></g></g></g></g></svg>