<?xml version="1.0" encoding="UTF-8"?><svg xmlns="http://www.w3.org/2000/svg" viewBox="0 0 203.43 168.52"><defs><style>.cls-1{isolation:isolate;}.cls-2{fill:#3c3e34;}.cls-3{mix-blend-mode:multiply;opacity:.6;}.cls-4{fill:#bfc852;}</style></defs><g class="cls-1"><g id="Calque_2"><g id="iconos"><g><g class="cls-3"><path class="cls-4" d="M140.54,68.58c0,37.88-30.71,68.59-68.59,68.59S3.36,106.46,3.36,68.58,34.07,0,71.95,0s68.59,30.7,68.59,68.58Z"/></g><path class="cls-2" d="M182.87,30.52c-.3-1.32-1.48-2.25-2.83-2.25H101.94c1.61,0,2.91,1.29,2.91,2.89v2.91h41.98v-.08c-.27-1.59,.81-3.07,2.39-3.32,1.58-.25,3.08,.81,3.33,2.4l.16,1h25.02l15.9,69.01h3.65c1.61,0,2.91,1.31,2.91,2.91s-1.3,2.9-2.91,2.9h-2.31l1.89,8.2H101.7c1.61,0,2.91,1.3,2.91,2.91v2.9h95.9c1.6,0,2.91-1.3,2.91-2.9,0-.32-.05-.61-.14-.91l-20.41-88.57Z"/><path class="cls-2" d="M101.7,117.1H6.5l1.76-8.2h-2.13c-1.6,0-2.9-1.29-2.9-2.9s1.3-2.91,2.9-2.91h3.37L24.31,34.08h23.88l.54-3.37c.25-1.58,1.75-2.66,3.33-2.4,1.58,.25,2.66,1.75,2.4,3.32l-.39,2.44h44.96v-2.91c0-1.61,1.3-2.89,2.91-2.89H21.96c-1.37,0-2.56,.95-2.84,2.29L.07,119.39c-.19,.86,.03,1.75,.58,2.44,.55,.69,1.38,1.08,2.26,1.08H98.81v-2.9c0-1.61,1.3-2.91,2.9-2.91Z"/><path class="cls-2" d="M51.61,49.35l2.46-15.27,.39-2.44c.26-1.58-.82-3.08-2.4-3.32-1.58-.27-3.08,.81-3.33,2.4l-.54,3.37-2.46,15.27h5.89Z"/><polygon class="cls-2" points="46.64 80.16 50.67 55.16 44.79 55.16 40.76 80.16 46.64 80.16"/><path class="cls-2" d="M45.7,85.97h-5.89l-2.37,14.71c-.15,.91,.15,1.77,.73,2.4h4.28c.37-.4,.63-.9,.72-1.47l2.53-15.64Z"/><path class="cls-2" d="M155.18,49.35l-2.46-15.27-.16-1c-.26-1.59-1.76-2.65-3.33-2.4-1.58,.25-2.66,1.73-2.41,3.32v.08l2.48,15.27h5.88Z"/><polygon class="cls-2" points="150.23 55.16 154.27 80.16 160.15 80.16 156.12 55.16 150.23 55.16"/><path class="cls-2" d="M155.21,85.97l2.76,17.11h5.88v-.04l-2.76-17.07h-5.88Z"/><path class="cls-2" d="M101.7,117.1c-1.6,0-2.9,1.3-2.9,2.91v42.7h5.81v-42.7c0-1.61-1.3-2.91-2.91-2.91Z"/><path class="cls-2" d="M45.73,49.35h-14.12c-1.6,0-2.9,1.3-2.9,2.9s1.3,2.91,2.9,2.91H99.04v-5.81H45.73Z"/><path class="cls-2" d="M156.12,55.16h16.16c1.6,0,2.9-1.3,2.9-2.91s-1.3-2.9-2.9-2.9H104.85v5.81h51.27Z"/><path class="cls-2" d="M40.76,80.16h-15.74c-1.6,0-2.9,1.31-2.9,2.91s1.3,2.9,2.9,2.9H99.04v-5.81H40.76Z"/><path class="cls-2" d="M161.09,85.97h17.78c1.6,0,2.9-1.3,2.9-2.9s-1.3-2.91-2.9-2.91H104.85v5.81h56.24Z"/><path class="cls-2" d="M99.04,105.99v-2.91H6.13c-1.6,0-2.9,1.31-2.9,2.91s1.3,2.9,2.9,2.9H101.94c-1.6,0-2.91-1.29-2.91-2.9Z"/><path class="cls-2" d="M157.97,103.09h-53.12v2.91c0,1.61-1.3,2.9-2.91,2.9h95.34c1.61,0,2.91-1.29,2.91-2.9s-1.3-2.91-2.91-2.91h-39.31Z"/><path class="cls-2" d="M98.81,162.7h-26.85c-1.61,0-2.91,1.31-2.91,2.91s1.3,2.91,2.91,2.91h59.98c1.61,0,2.9-1.31,2.9-2.91s-1.3-2.91-2.9-2.91h-33.13Z"/><path class="cls-2" d="M99.04,31.17V105.99c0,1.61,1.3,2.9,2.91,2.9s2.91-1.29,2.91-2.9V31.17c0-1.61-1.3-2.89-2.91-2.89s-2.91,1.29-2.91,2.89Z"/></g></g></g></g></svg>