<?xml version="1.0" encoding="UTF-8"?><svg xmlns="http://www.w3.org/2000/svg" viewBox="0 0 203.42 207.68"><defs><style>.cls-1{isolation:isolate;}.cls-2{fill:#3c3e34;}.cls-3{mix-blend-mode:multiply;opacity:.6;}.cls-4{fill:#bfc852;}</style></defs><g class="cls-1"><g id="Calque_2"><g id="iconos"><g><g class="cls-3"><path class="cls-4" d="M140.08,136.19c0,37.88-30.71,68.59-68.59,68.59S2.91,174.07,2.91,136.19s30.71-68.59,68.59-68.59,68.59,30.72,68.59,68.59Z"/></g><path class="cls-2" d="M2.91,16.88h3.21c1.34-6.32,6.96-11.07,13.67-11.07h25.75c6.71,0,12.33,4.75,13.67,11.07h5.9C63.69,7.35,55.46,0,45.53,0H19.79C8.88,0,0,8.88,0,19.79c0-1.6,1.3-2.91,2.91-2.91Z"/><path class="cls-2" d="M183.63,0h-25.75c-9.92,0-18.16,7.35-19.57,16.88h5.9c1.34-6.32,6.96-11.07,13.67-11.07h25.75c6.71,0,12.33,4.75,13.67,11.07h3.21c1.6,0,2.91,1.31,2.91,2.91,0-10.91-8.88-19.79-19.79-19.79Z"/><path class="cls-2" d="M200.51,16.88H2.91c-1.61,0-2.91,1.31-2.91,2.91V190.23c0-1.6,1.3-2.9,2.91-2.9h2.9V22.69H197.61V187.33h2.91c1.6,0,2.91,1.3,2.91,2.9V19.79c0-1.6-1.3-2.91-2.91-2.91Z"/><path class="cls-2" d="M178.94,44.7H19.35c-1.6,0-2.9,1.3-2.9,2.91s1.3,2.9,2.9,2.9H178.94c1.6,0,2.91-1.3,2.91-2.9s-1.3-2.91-2.91-2.91Z"/><path class="cls-2" d="M134.83,112.69l-20.48-10.86,20.02-37.77c.75-1.41,.21-3.18-1.21-3.92-1.41-.75-3.17-.22-3.93,1.2l-21.37,40.34c-.75,1.42-.21,3.17,1.21,3.93l19.41,10.28-43.85,40.09,17.27-32.6c.75-1.41,.21-3.18-1.2-3.92l-20.49-10.86,20.02-37.76c.75-1.42,.21-3.18-1.2-3.94-1.42-.75-3.17-.21-3.93,1.2l-21.38,40.35c-.75,1.41-.21,3.17,1.21,3.92l20.48,10.86-23.77,44.84c-.66,1.24-.33,2.79,.79,3.66,.53,.4,1.15,.6,1.78,.6,.71,0,1.4-.25,1.96-.77l59.27-54.17c.7-.64,1.05-1.57,.93-2.51-.12-.94-.69-1.76-1.52-2.2Z"/><path class="cls-2" d="M200.51,187.33H2.91c-1.61,0-2.91,1.3-2.91,2.9v14.55c0,1.6,1.3,2.9,2.91,2.9H200.51c1.6,0,2.91-1.3,2.91-2.9v-14.55c0-1.6-1.3-2.9-2.91-2.9Zm-2.91,14.55H5.81v-8.74H197.61v8.74Z"/></g></g></g></g></svg>