<?xml version="1.0" encoding="UTF-8"?><svg xmlns="http://www.w3.org/2000/svg" viewBox="0 0 166.35 203.41"><defs><style>.cls-1{isolation:isolate;}.cls-2{fill:#3c3e34;}.cls-3{mix-blend-mode:multiply;opacity:.6;}.cls-4{fill:#bfc852;}</style></defs><g class="cls-1"><g id="Calque_2"><g id="iconos"><g><g class="cls-3"><path class="cls-4" d="M166.35,132.69c0,37.88-30.71,68.58-68.59,68.58S29.17,170.57,29.17,132.69s30.71-68.6,68.59-68.6,68.59,30.71,68.59,68.6Z"/></g><path class="cls-2" d="M81.22,0H34.93c-1.61,0-2.91,1.29-2.91,2.91V19.04h5.81V5.81h40.49v13.23h5.81V2.91c0-1.61-1.3-2.91-2.91-2.91Z"/><path class="cls-2" d="M98.56,202.33c-.9,.01-1.78,.03-2.66,.03h-.02c-13.7,0-26.04-1.59-36.96-4.75H21.3v-22.62c-.2-.23-.4-.43-.6-.66-1.9-2.15-3.63-4.35-5.21-6.59v32.77c0,1.61,1.3,2.9,2.91,2.9H97.76c1.16,0,2.14-.67,2.61-1.65-.08,.03-.16,.07-.25,.08-.45,.31-.99,.49-1.56,.49Z"/><path class="cls-2" d="M78.32,19.04H18.4c-1.61,0-2.91,1.3-2.91,2.91V103.46c1.75,.02,3.7,.1,5.81,.25V24.85H94.85v27.27c0,1.6,1.3,2.9,2.91,2.9s2.91-1.3,2.91-2.9V21.95c0-1.61-1.3-2.91-2.91-2.91h-19.44Z"/><path class="cls-2" d="M95.76,63.99c-1.17,.93-26.26,20.96-32.34,52.77,1.08,.69,2.17,1.4,3.23,2.18,.69,.49,1.37,.99,2.05,1.5,4.08-26.42,23.04-45.15,28.91-50.39,6.53,5.47,28.81,26.22,31.28,56.12,1.82,22.14-7.49,44.6-27.69,66.79,.1,2.11,.18,4.24,.21,6.43,.01,1.03-.5,1.93-1.29,2.46,.09-.01,.17-.05,.25-.08,.46-.15,.89-.39,1.23-.73,24.03-24.75,35.16-50.1,33.08-75.33-3.1-37.51-34.08-60.77-35.41-61.74-.45-.34-.98-.51-1.51-.55-.7-.05-1.42,.14-2,.59Z"/><path class="cls-2" d="M102.07,175.76l-.15-10.41-.83,.87c-.57,.58-1.33,.87-2.08,.87-.54,0-1.07-.15-1.55-.45,.95,3.84,1.74,7.83,2.35,11.99,1.31-.29,2.29-1.47,2.26-2.87Z"/><path class="cls-2" d="M98.94,160.09l2.86-2.96-.25-17.13-.84,.87c-.54,.55-1.27,.87-2.04,.87h-.05c-.75,0-1.48-.29-2.02-.82l-.86-.84,.25,17.14,2.95,2.86Z"/><path class="cls-2" d="M98.56,134.73l2.86-2.94-.21-14.54-.48,.49c-.57,.58-1.33,.88-2.09,.88s-1.46-.28-2.02-.83l-1.23-1.19,.23,15.26,2.94,2.86Z"/><path class="cls-2" d="M98.58,111.61l2.51-2.57-.42-28.37c-.02-1.61-1.33-2.89-2.95-2.86-1.61,.02-2.88,1.33-2.86,2.95l.41,27.64,3.31,3.21Z"/><path class="cls-2" d="M99,167.1c.76,0,1.51-.29,2.08-.87l.83-.87,11.6-11.95c1.12-1.14,1.09-2.98-.06-4.1-1.15-1.12-2.99-1.09-4.11,.05l-7.55,7.78-2.86,2.96-2.95-2.86-2.1-2.04c1.37,3.63,2.56,7.46,3.56,11.46,.47,.29,1.01,.45,1.55,.45Z"/><path class="cls-2" d="M98.62,141.75h.05c.77,0,1.5-.33,2.04-.87l.84-.87,11.59-11.95c1.12-1.15,1.09-3-.06-4.11-1.15-1.12-2.99-1.09-4.11,.06l-7.55,7.79-2.86,2.94-2.94-2.86-8.51-8.26c-1.15-1.12-2.99-1.09-4.11,.06-1.12,1.15-1.09,2.99,.06,4.1l12.68,12.31,.86,.84c.54,.53,1.27,.82,2.02,.82Z"/><path class="cls-2" d="M98.65,118.63c.75,0,1.52-.3,2.09-.88l.48-.49,11.96-12.32c1.12-1.15,1.09-2.99-.06-4.1-1.15-1.12-2.99-1.09-4.11,.06l-7.91,8.15-2.51,2.57-3.31-3.21-8.14-7.9c-1.15-1.12-2.99-1.09-4.11,.05-1.12,1.15-1.09,2.99,.06,4.11l12.31,11.96,1.23,1.19c.56,.55,1.29,.83,2.02,.83Z"/><path class="cls-2" d="M20.7,174.33c.2,.23,.4,.43,.6,.66,9.65,10.61,22.23,18.17,37.62,22.62,10.92,3.16,23.26,4.74,36.96,4.75h.02c.88,0,1.76-.01,2.66-.03,.58,0,1.12-.19,1.56-.49,.79-.53,1.31-1.43,1.29-2.46-.03-2.18-.11-4.32-.21-6.43-.26-4.96-.72-9.73-1.39-14.32-.61-4.16-1.4-8.15-2.35-11.99-1-4-2.19-7.83-3.56-11.46-5.46-14.48-13.87-26.1-25.19-34.75-.67-.51-1.36-1.01-2.05-1.5-1.07-.78-2.15-1.48-3.23-2.18-14.65-9.27-30.72-12.25-42.12-13.06-2.11-.15-4.06-.23-5.81-.25-.54,0-1.07-.01-1.57-.01-6.66,0-10.9,.63-11.08,.65-1.29,.21-2.29,1.23-2.45,2.53-.18,1.49-3.84,34.12,15.09,61.12,1.58,2.24,3.3,4.44,5.21,6.59ZM5.99,109.6c1.77-.17,4.52-.34,7.93-.34,23.86,0,79.12,8.59,81.62,87.28-31.47-.06-55.19-8.82-70.46-26.03C5.34,148.28,5.51,118.04,5.99,109.6Z"/><path class="cls-2" d="M57.43,159.54c-.54,.56-1.27,.87-2.04,.89h-1.2l12.29,11.95,4.11-.06-.06-4.11-12.3-11.94,.02,1.21c.01,.76-.28,1.51-.82,2.05Z"/><path class="cls-2" d="M41.1,143.18c-.54,.55-1.27,.87-2.04,.88l-1.71,.03,10.95,10.63,4.11-.07-.06-4.11-10.43-10.12v.69c.02,.77-.27,1.51-.81,2.07Z"/><path class="cls-2" d="M31.44,138.36l4.62-.07-.05-3.6-20.36-19.76c-1.15-1.11-2.99-1.09-4.11,.06-1.12,1.15-1.09,2.99,.06,4.11l19.83,19.26Z"/><path class="cls-2" d="M73.58,178.09l-1.2,.02,7.47,7.24c.57,.54,1.29,.82,2.02,.82s1.51-.29,2.08-.88c1.12-1.15,1.09-2.99-.06-4.1l-7.47-7.25,.02,1.2c.02,1.6-1.26,2.92-2.87,2.95Z"/><path class="cls-2" d="M70.59,172.32l-4.11,.06-11.86,.17c-1.6,.02-2.89,1.35-2.86,2.94,.03,1.6,1.32,2.86,2.9,2.86h.05l17.67-.25,1.2-.02c1.6-.03,2.89-1.35,2.87-2.95l-.02-1.2-.25-16.65c-.03-1.6-1.33-2.87-2.94-2.86-1.61,.02-2.89,1.34-2.87,2.95l.16,10.83,.06,4.11Z"/><path class="cls-2" d="M48.29,154.72l-11.86,.17c-1.6,.01-2.88,1.34-2.86,2.95,.02,1.59,1.32,2.86,2.9,2.86h.04l17.67-.26h1.2c.77-.03,1.5-.34,2.04-.9,.53-.55,.83-1.29,.82-2.05l-.02-1.21-.25-16.64c-.02-1.59-1.32-2.87-2.9-2.87h-.05c-1.6,.03-2.88,1.35-2.86,2.95l.16,10.83,.06,4.11-4.11,.07Z"/><path class="cls-2" d="M31.44,138.36l-11.35,.16c-1.6,.03-2.89,1.35-2.86,2.95,.02,1.59,1.32,2.86,2.91,2.86h.04l17.16-.25,1.71-.03c.77-.01,1.5-.33,2.04-.88,.54-.56,.83-1.29,.82-2.07v-.69l-.27-17.16c-.02-1.59-1.32-2.87-2.9-2.87h-.04c-1.6,.02-2.89,1.35-2.86,2.95l.17,11.35,.05,3.6-4.62,.07Z"/><path class="cls-2" d="M83.31,38.55H29.97c-1.61,0-2.91,1.3-2.91,2.92s1.3,2.9,2.91,2.9h53.34c1.6,0,2.9-1.31,2.9-2.9s-1.3-2.92-2.9-2.92Z"/></g></g></g></g></svg>