<?xml version="1.0" encoding="UTF-8"?><svg xmlns="http://www.w3.org/2000/svg" viewBox="0 0 203.41 173.58"><defs><style>.cls-1{isolation:isolate;}.cls-2{fill:#3c3e34;}.cls-3{mix-blend-mode:multiply;opacity:.6;}.cls-4{fill:#bfc852;}</style></defs><g class="cls-1"><g id="Calque_2"><g id="iconos"><g><g class="cls-3"><path class="cls-4" d="M140.09,104.99c0,37.88-30.71,68.6-68.6,68.6S2.9,142.87,2.9,104.99,33.6,36.4,71.49,36.4s68.6,30.7,68.6,68.59Z"/></g><path class="cls-2" d="M52.55,134.24c3.62,0,7.15-.37,10.56-1.07-1.55-1.63-2.99-3.36-4.32-5.17-2.04,.27-4.12,.43-6.24,.43-25.77,0-46.75-20.97-46.75-46.75C5.8,58.87,43.22,17.19,52.55,7.15c4.62,4.96,16.09,17.65,26.52,31.98,1.29-1.62,2.56-3.17,3.8-4.66C69.84,16.71,55.73,2.01,54.64,.89c-.55-.57-1.3-.89-2.09-.89s-1.54,.32-2.09,.89C48.4,3.02,0,53.41,0,81.68s23.57,52.56,52.55,52.56Z"/><path class="cls-2" d="M124.84,41.03c10.29-14.04,21.47-26.4,26.01-31.29,9.34,10.05,46.75,51.71,46.75,74.54,0,25.78-20.97,46.75-46.75,46.75-3.06,0-6.04-.3-8.93-.85-1.41,1.73-2.94,3.38-4.56,4.92,4.3,1.14,8.83,1.75,13.48,1.75,28.98,0,52.56-23.58,52.56-52.56S155,5.62,152.93,3.48c-.55-.57-1.3-.89-2.08-.89s-1.54,.32-2.09,.89c-1.07,1.12-14.82,15.42-27.69,32.86,1.24,1.5,2.5,3.07,3.78,4.68Z"/><path class="cls-2" d="M79.07,39.13c-14.09,17.55-30.43,41.43-30.43,57.85,0,11.6,3.78,22.32,10.15,31.02,1.33,1.81,2.78,3.54,4.32,5.17,9.58,10.08,23.11,16.37,38.09,16.37,14,0,26.75-5.5,36.17-14.46,1.62-1.54,3.14-3.19,4.56-4.92,7.39-9.06,11.82-20.61,11.82-33.18,0-15.83-15.18-38.61-28.91-55.95-1.28-1.61-2.54-3.18-3.78-4.68-9.21-11.24-16.98-19.32-17.79-20.15-.55-.57-1.29-.89-2.08-.89s-1.54,.32-2.09,.89c-.75,.77-7.7,8.02-16.23,18.27-1.24,1.5-2.52,3.04-3.8,4.66Zm22.13,104.6c-25.79,0-46.75-20.96-46.75-46.75,0-22.81,37.41-64.48,46.75-74.54,9.34,10.06,46.75,51.72,46.75,74.54,0,25.79-20.97,46.75-46.75,46.75Z"/><path class="cls-2" d="M141.65,93.78c0-1.6-1.29-2.9-2.9-2.9s-2.91,1.3-2.91,2.9c0,19.11-15.54,34.65-34.64,34.65s-34.65-15.54-34.65-34.65c0-1.6-1.3-2.9-2.9-2.9s-2.91,1.3-2.91,2.9c0,22.31,18.15,40.46,40.46,40.46s40.45-18.15,40.45-40.46Z"/><path class="cls-2" d="M46.08,26.1c-1.29-.95-3.1-.69-4.06,.6-.93,1.26-22.92,30.98-25.62,44.89-.31,1.58,.72,3.1,2.29,3.4,.19,.04,.37,.05,.56,.05,1.36,0,2.58-.96,2.84-2.35,2.44-12.61,24.36-42.23,24.59-42.52,.95-1.29,.68-3.11-.61-4.07Z"/></g></g></g></g></svg>